<svg xmlns="http://www.w3.org/2000/svg" width="258" height="54" viewBox="0 0 258 54">
    <g fill="#000" fill-rule="evenodd">
        <path d="M41 0h217v2H41zM0 52h258v2H0z"/>
        <path fill-rule="nonzero" d="M7 8.63V8.19C7 6.949 7.94 6 9.17 6h12.66C23.06 6 24 6.95 24 8.191v8.618C24 18.051 23.06 19 21.83 19H7V8.63zm-.127 30.279V24.767h15.051A8.045 8.045 0 0 0 30 16.707V8.06C30 3.59 26.403 0 21.924 0H9.076A8.045 8.045 0 0 0 1 8.06v27.698c0 4.103 5.873 3.14 5.873 3.15zM54.4 31.844h-8.8L43.552 38.5h-3.264L47.2 17.284c.085-.277.23-.49.432-.64.203-.15.453-.224.752-.224h3.264c.277 0 .523.08.736.24.213.16.352.368.416.624L59.744 38.5h-3.296L54.4 31.844zm-.864-2.784l-2.56-8.384-.544-1.792h-.864l-.512 1.792-2.592 8.384h7.072zm38.092 9.44h-3.424l-1.888-6.88c-.256-.79-.603-1.355-1.04-1.696-.437-.341-1.019-.512-1.744-.512l-3.294-.012a75.904 75.904 0 0 1-1.25-.02v9.12H75.82V16.42a42.766 42.766 0 0 1 2.652-.215l.628-.025a153.94 153.94 0 0 1 4.432-.048c1.792 0 3.21.192 4.256.576 1.045.384 1.813 1.04 2.304 1.968.49.928.736 2.213.736 3.856 0 1.77-.315 3.104-.944 4-.63.896-1.67 1.44-3.12 1.632v.16c.619.17 1.184.523 1.696 1.056s.875 1.248 1.088 2.144l2.08 6.976zm-8.16-11.84c1.067-.021 1.893-.15 2.48-.384a2.261 2.261 0 0 0 1.264-1.184c.256-.555.384-1.344.384-2.368 0-1.024-.128-1.808-.384-2.352-.256-.544-.677-.928-1.264-1.152-.587-.224-1.413-.336-2.48-.336l-2.882.009c-.684.005-1.217.013-1.598.023v7.744h4.48zm30.796 1.632h-2.528c.15.896.224 1.653.224 2.272V38.5h-3.2V16.42h3.2v6.784c0 .917-.075 1.75-.224 2.496h2.496l6.496-9.28h3.488l-6.24 9.024c-.341.49-.79 1.003-1.344 1.536v.096a9.358 9.358 0 0 1 1.536 1.664l6.464 9.76h-3.552l-6.816-10.208zm34.668-12.16c2.197 0 3.92.352 5.168 1.056 1.248.704 2.155 1.872 2.72 3.504.565 1.632.848 3.888.848 6.768s-.283 5.136-.848 6.768c-.565 1.632-1.472 2.8-2.72 3.504-1.248.704-2.97 1.056-5.168 1.056-2.517 0-5.173-.096-7.968-.288V16.42c2.795-.192 5.45-.288 7.968-.288zm0 19.872c1.365 0 2.432-.267 3.2-.8.768-.533 1.317-1.413 1.648-2.64.33-1.227.496-2.928.496-5.104s-.165-3.877-.496-5.104c-.33-1.227-.88-2.107-1.648-2.64-.768-.533-1.835-.8-3.2-.8l-1.249.006c-1.032.009-2.205.028-3.519.058v16.96l1.753.036c1.114.019 2.119.028 3.015.028zm42.508-6.016c0 2.176-.261 3.915-.784 5.216-.523 1.301-1.365 2.245-2.528 2.832-1.163.587-2.725.88-4.688.88-2.027 0-3.637-.293-4.832-.88-1.195-.587-2.064-1.53-2.608-2.832-.544-1.301-.816-3.04-.816-5.216V16.42h3.2v13.568c0 1.536.155 2.741.464 3.616.31.875.821 1.504 1.536 1.888.715.384 1.69.576 2.928.576 1.216 0 2.181-.192 2.896-.576.715-.384 1.232-1.013 1.552-1.888.32-.875.48-2.08.48-3.616V16.42h3.2v13.568zm26.284-13.856c2.197 0 3.92.352 5.168 1.056 1.248.704 2.155 1.872 2.72 3.504.565 1.632.848 3.888.848 6.768s-.283 5.136-.848 6.768c-.565 1.632-1.472 2.8-2.72 3.504-1.248.704-2.97 1.056-5.168 1.056-2.517 0-5.173-.096-7.968-.288V16.42c2.795-.192 5.45-.288 7.968-.288zm0 19.872c1.365 0 2.432-.267 3.2-.8.768-.533 1.317-1.413 1.648-2.64.33-1.227.496-2.928.496-5.104s-.165-3.877-.496-5.104c-.33-1.227-.88-2.107-1.648-2.64-.768-.533-1.835-.8-3.2-.8l-1.249.006c-1.032.009-2.205.028-3.519.058v16.96l1.753.036c1.114.019 2.119.028 3.015.028zm39.98-.16l.16 2.464c-1.28.107-2.64.176-4.08.208l-1.147.021c-1.214.018-2.629.027-4.245.027-1.365 0-2.443-.357-3.232-1.072-.79-.715-1.195-1.68-1.216-2.896V20.324c.021-1.216.427-2.181 1.216-2.896.79-.715 1.867-1.072 3.232-1.072l1.549.003c1.482.006 2.763.021 3.843.045 1.44.032 2.8.101 4.08.208l-.16 2.496h-8.768c-.64 0-1.093.155-1.36.464-.267.31-.4.837-.4 1.584v4.416h9.312v2.592h-9.312v5.632c0 .747.133 1.275.4 1.584.267.31.72.464 1.36.464h8.768z"/>
    </g>
</svg>
